<svg width="18" height="20" viewBox="0 0 18 20" fill="none" xmlns="http://www.w3.org/2000/svg">
<path d="M2.25 20C1.63125 20 1.10175 19.8043 0.6615 19.413C0.22125 19.0217 0.00075 18.5507 0 18V2C0 1.45 0.2205 0.979333 0.6615 0.588C1.1025 0.196667 1.632 0.000666667 2.25 0H15.75C16.3687 0 16.8986 0.196 17.3396 0.588C17.7806 0.98 18.0007 1.45067 18 2V18C18 18.55 17.7799 19.021 17.3396 19.413C16.8994 19.805 16.3695 20.0007 15.75 20H2.25ZM2.25 18H15.75V2H13.5V9L10.6875 7.5L7.875 9V2H2.25V18Z" fill="#BC9C22"/>
</svg>
