<svg width="19" height="21" viewBox="0 0 19 21" fill="none" xmlns="http://www.w3.org/2000/svg">
<path d="M1.91332 0C1.40588 0 0.919217 0.201136 0.560399 0.55916C0.201582 0.917184 0 1.40277 0 1.90909V17.1818C0 18.2414 0.851428 19.0909 1.91332 19.0909H7.65329V17.1818H1.91332V1.90909H8.60995V6.68182H13.3933V9.54545H15.3066V5.72727L9.56661 0M13.3933 11.4545C13.3348 11.4535 13.2778 11.473 13.2323 11.5096C13.1868 11.5463 13.1558 11.5977 13.1445 11.655L12.9628 12.915C12.6758 13.0391 12.3983 13.1918 12.1496 13.3636L10.9633 12.8864C10.8581 12.8864 10.7337 12.8864 10.6668 13.0105L9.71011 14.6618C9.65271 14.7668 9.67185 14.8909 9.76751 14.9673L10.7816 15.75C10.7434 16.067 10.7434 16.3875 10.7816 16.7045L9.76751 17.4873C9.72452 17.5241 9.6954 17.5744 9.68496 17.6299C9.67453 17.6855 9.6834 17.7429 9.71011 17.7927L10.6668 19.4441C10.7242 19.5682 10.8485 19.5682 10.9633 19.5682L12.1496 19.0909C12.3983 19.2627 12.6662 19.425 12.9628 19.5395L13.1445 20.7995C13.1637 20.9141 13.2593 21 13.3933 21H15.3066C15.4118 21 15.517 20.9141 15.5362 20.7995L15.7179 19.5395C16.0049 19.4155 16.2632 19.2627 16.5215 19.0909L17.6982 19.5682C17.8226 19.5682 17.947 19.5682 18.0139 19.4441L18.9706 17.7927C18.9973 17.7429 19.0062 17.6855 18.9957 17.6299C18.9853 17.5744 18.9562 17.5241 18.9132 17.4873L17.8896 16.7045C17.9087 16.5423 17.9278 16.3895 17.9278 16.2273C17.9278 16.065 17.9183 15.9123 17.8896 15.75L18.9036 14.9673C18.9466 14.9305 18.9757 14.8802 18.9862 14.8246C18.9966 14.7691 18.9877 14.7116 18.961 14.6618L18.0044 13.0105C17.947 12.8864 17.8226 12.8864 17.6982 12.8864L16.5215 13.3636C16.2632 13.1918 16.0049 13.0295 15.7084 12.915L15.5266 11.655C15.5206 11.6006 15.4949 11.5503 15.4544 11.5134C15.414 11.4765 15.3614 11.4556 15.3066 11.4545M14.3499 14.7955C15.1439 14.7955 15.7849 15.435 15.7849 16.2273C15.7849 17.0195 15.1439 17.6591 14.3499 17.6591C13.5463 17.6591 12.9149 17.0195 12.9149 16.2273C12.9149 15.435 13.5559 14.7955 14.3499 14.7955Z" fill="#BC9C22"/>
</svg>
