<svg version="1.2" xmlns="http://www.w3.org/2000/svg" viewBox="0 0 20 20" width="20" height="20">
	<title>ballot-check_9821461-svg</title>
	<style>
		.s0 { fill: #bc9c22 } 
	</style>
	<path id="Layer" fill-rule="evenodd" class="s0" d="m18.3 2.5v17.5h-16.6v-17.5c0-1.4 1.1-2.5 2.5-2.5h11.6c1.4 0 2.5 1.1 2.5 2.5zm-1.6 0c0-0.5-0.4-0.8-0.9-0.8h-11.6c-0.5 0-0.9 0.3-0.9 0.8v15.8h13.4zm-10.9 11.7h1.7v1.7h-1.7zm3.4-10h5v1.6h-5zm-1.7 1.7h-1.7v-1.7h1.7zm3 3.2l-2.3 2.3c-0.3 0.2-0.6 0.4-1 0.4-0.3 0-0.7-0.2-1-0.4l-1.2-1.2 1.2-1.2 1 1 2.1-2.1c0 0 1.2 1.2 1.2 1.2zm-1.3 5.2h5v1.6h-5zm3.3-5h1.7v1.7h-3.4z"/>
</svg>