<svg version="1.2" xmlns="http://www.w3.org/2000/svg" viewBox="0 0 32 36" width="20" height="23">
	<title>Vector-svg</title>
	<style>
		.s0 { fill: #bc9c22 } 
	</style>
	<path id="Layer" fill-rule="evenodd" class="s0" d="m3.6 36q-1.5 0-2.6-1.1-1-1-1-2.5v-25.2q0-1.5 1-2.5 1.1-1.1 2.6-1.1h7.4q0.6-1.6 2-2.6 1.3-1 3-1 1.7 0 3 1 1.4 1 2 2.6h7.4q1.5 0 2.6 1.1 1 1 1 2.5v25.2q0 1.5-1 2.5-1.1 1.1-2.6 1.1zm0-3.6h24.9v-25.2h-24.9zm11.2-4.1q-0.5-0.5-0.5-1.3 0-0.8 0.5-1.3 0.5-0.5 1.3-0.5 0.7 0 1.3 0.5 0.5 0.5 0.5 1.3 0 0.8-0.5 1.3-0.6 0.5-1.3 0.5-0.8 0-1.3-0.5zm-0.5-17.5h3.6v10.8h-3.6zm1.8-5q0.6 0 0.9-0.3 0.4-0.4 0.4-1 0-0.6-0.4-1-0.3-0.3-0.9-0.4-0.6 0-1 0.4-0.3 0.4-0.3 1 0 0.6 0.3 1 0.4 0.4 1 0.3z"/>
</svg>