<svg version="1.2" xmlns="http://www.w3.org/2000/svg" viewBox="0 0 20 20" width="20" height="20">
	<title>legal_13794759-svg</title>
	<style>
		.s0 { fill: #c0a334 } 
	</style>
	<path id="Layer" fill-rule="evenodd" class="s0" d="m20 2.5v17.5h-9.2v-1.7h7.5v-15.8c0-0.5-0.3-0.8-0.8-0.8h-10c-0.5 0-0.8 0.3-0.8 0.8v6.5q-0.8-0.5-1.7-0.6v-5.9c0-1.4 1.1-2.5 2.5-2.5h10c1.4 0 2.5 1.1 2.5 2.5zm-10.8 1.7h6.6v1.6h-6.6zm0 3.4h5v1.6h-5zm4.5 9.2c-1.6 0-2.9-1.3-2.9-2.9 0-1.6 1.3-2.9 3-2.9 1.6 0 2.9 1.3 2.9 2.9 0 1.6-1.3 2.9-3 2.9zm1.3-2.9c0-0.7-0.6-1.3-1.3-1.3-0.6 0-1.2 0.6-1.2 1.3 0 0.7 0.6 1.2 1.3 1.2 0.6 0 1.2-0.5 1.2-1.2zm-6.7 4.6h0.9v1.6h-9.2v-1.6h0.8v-1.3c0-1.1 1-2.1 2.1-2.1h0.8c-0.5-1.2-1.2-2.2-1.2-2.9 0-1.1 0.9-2 2.1-2 1.1 0 2.1 0.9 2.1 2 0 0.7-0.7 1.7-1.3 2.9h0.8c1.2 0 2.1 1 2.1 2.1zm-5.8 0h4.2v-1.2c0-0.3-0.2-0.4-0.5-0.4h-3.3c-0.2 0-0.4 0.1-0.4 0.4z"/>
</svg>