<svg version="1.2" xmlns="http://www.w3.org/2000/svg" viewBox="0 0 20 20" width="20" height="20">
	<title>alt_13794367-svg</title>
	<style>
		.s0 { fill: #c0a334 } 
	</style>
	<path id="Layer" fill-rule="evenodd" class="s0" d="m9.9 1.7h3.4v15.8c0 1.4-1.1 2.5-2.5 2.5h-8.3c-1.4 0-2.5-1.1-2.5-2.5v-15.8h3.5c0.3-1 1.2-1.7 2.3-1.7h1.7c1.1 0 2 0.7 2.4 1.7zm1.8 1.6h-3.4v-0.8c0-0.5-0.3-0.8-0.8-0.8h-1.7c-0.4 0-0.8 0.3-0.8 0.8v0.8h-3.3v14.2c0 0.5 0.3 0.8 0.8 0.8h8.3c0.5 0 0.9-0.3 0.9-0.8zm8.3-0.8v14.9l-2.5 2.5-2.5-2.5v-14.9c0-1.4 1.1-2.5 2.5-2.5 1.4 0 2.5 1.1 2.5 2.5zm-1.7 0c0-0.5-0.3-0.9-0.8-0.9-0.5 0-0.8 0.4-0.8 0.9v14.2l0.8 0.8 0.8-0.8zm-11.1 2.7l1.1 1.2-2.3 2.4c-0.3 0.2-0.6 0.4-0.9 0.4-0.4 0-0.7-0.2-1-0.4l-1.4-1.4 1.2-1.2 1.2 1.2zm0 5l1.1 1.1-2.3 2.4c-0.3 0.3-0.6 0.4-1 0.4-0.3 0-0.6-0.1-0.9-0.4l-1.4-1.4 1.2-1.2 1.1 1.2z"/>
</svg>