<svg width="20" height="23" viewBox="0 0 20 23" fill="none" xmlns="http://www.w3.org/2000/svg">
<path d="M6.78575 6.77502V8.35002H4.85718V9.40002H6.78575V10.975H8.07146V9.40002H10V8.35002H8.07146V6.77502H6.78575ZM5.50003 12.55C5.32954 12.55 5.16602 12.6053 5.04547 12.7038C4.92491 12.8022 4.85718 12.9358 4.85718 13.075C4.85718 13.2143 4.92491 13.3478 5.04547 13.4463C5.16602 13.5447 5.32954 13.6 5.50003 13.6H14.5C14.6705 13.6 14.834 13.5447 14.9546 13.4463C15.0752 13.3478 15.1429 13.2143 15.1429 13.075C15.1429 12.9358 15.0752 12.8022 14.9546 12.7038C14.834 12.6053 14.6705 12.55 14.5 12.55H5.50003ZM4.85718 15.7C4.85718 15.5608 4.92491 15.4272 5.04547 15.3288C5.16602 15.2303 5.32954 15.175 5.50003 15.175H14.5C14.6705 15.175 14.834 15.2303 14.9546 15.3288C15.0752 15.4272 15.1429 15.5608 15.1429 15.7C15.1429 15.8393 15.0752 15.9728 14.9546 16.0713C14.834 16.1697 14.6705 16.225 14.5 16.225H5.50003C5.32954 16.225 5.16602 16.1697 5.04547 16.0713C4.92491 15.9728 4.85718 15.8393 4.85718 15.7ZM5.50003 17.8C5.32954 17.8 5.16602 17.8553 5.04547 17.9538C4.92491 18.0522 4.85718 18.1858 4.85718 18.325C4.85718 18.4643 4.92491 18.5978 5.04547 18.6963C5.16602 18.7947 5.32954 18.85 5.50003 18.85H14.5C14.6705 18.85 14.834 18.7947 14.9546 18.6963C15.0752 18.5978 15.1429 18.4643 15.1429 18.325C15.1429 18.1858 15.0752 18.0522 14.9546 17.9538C14.834 17.8553 14.6705 17.8 14.5 17.8H5.50003Z" fill="#BC9C22" stroke="#BC9C22" stroke-width="0.8"/>
<path fill-rule="evenodd" clip-rule="evenodd" d="M5.5 2.575C5.5 2.15728 5.70319 1.75668 6.06487 1.46131C6.42654 1.16594 6.91708 1 7.42857 1H12.5714C13.0829 1 13.5735 1.16594 13.9351 1.46131C14.2968 1.75668 14.5 2.15728 14.5 2.575H17.0714C17.5829 2.575 18.0735 2.74094 18.4351 3.03631C18.7968 3.33168 19 3.73228 19 4.15V20.425C19 20.8427 18.7968 21.2433 18.4351 21.5387C18.0735 21.8341 17.5829 22 17.0714 22H2.92857C2.41708 22 1.92654 21.8341 1.56487 21.5387C1.20319 21.2433 1 20.8427 1 20.425V4.15C1 3.73228 1.20319 3.33168 1.56487 3.03631C1.92654 2.74094 2.41708 2.575 2.92857 2.575H5.5ZM12.5714 5.2C13.0829 5.2 13.5735 5.03406 13.9351 4.73869C14.2968 4.44332 14.5 4.04272 14.5 3.625H17.0714C17.2419 3.625 17.4054 3.68031 17.526 3.77877C17.6466 3.87723 17.7143 4.01076 17.7143 4.15V20.425C17.7143 20.5642 17.6466 20.6978 17.526 20.7962C17.4054 20.8947 17.2419 20.95 17.0714 20.95H2.92857C2.75808 20.95 2.59456 20.8947 2.474 20.7962C2.35344 20.6978 2.28571 20.5642 2.28571 20.425V4.15C2.28571 4.01076 2.35344 3.87723 2.474 3.77877C2.59456 3.68031 2.75808 3.625 2.92857 3.625H5.5C5.5 4.04272 5.70319 4.44332 6.06487 4.73869C6.42654 5.03406 6.91708 5.2 7.42857 5.2H12.5714ZM7.42857 2.05C7.25808 2.05 7.09456 2.10531 6.974 2.20377C6.85344 2.30223 6.78571 2.43576 6.78571 2.575V3.625C6.78571 3.76424 6.85344 3.89777 6.974 3.99623C7.09456 4.09469 7.25808 4.15 7.42857 4.15H12.5714C12.7419 4.15 12.9054 4.09469 13.026 3.99623C13.1466 3.89777 13.2143 3.76424 13.2143 3.625V2.575C13.2143 2.43576 13.1466 2.30223 13.026 2.20377C12.9054 2.10531 12.7419 2.05 12.5714 2.05H7.42857Z" fill="#BC9C22" stroke="#BC9C22" stroke-width="0.8"/>
<rect x="6" y="2" width="8" height="2" fill="#BC9C22" stroke="#BC9C22" stroke-width="0.8"/>
</svg>
