<svg version="1.2" xmlns="http://www.w3.org/2000/svg" viewBox="0 0 32 37" width="20" height="23">
	<title>Group 8-svg</title>
	<style>
		.s0 { fill: #bc9c22 } 
	</style>
	<path id="Layer" fill-rule="evenodd" class="s0" d="m31.6 10.1q0.1 0.2 0.1 0.5v23.8c0 0.7-0.3 1.3-0.8 1.8-0.5 0.5-1.1 0.8-1.8 0.8h-21.2c-0.7 0-1.3-0.3-1.8-0.8-0.5-0.5-0.8-1.1-0.8-1.8v-5.3h-2.7c-0.7 0-1.3-0.3-1.8-0.8-0.5-0.5-0.8-1.2-0.8-1.9v-7.9c0-0.7 0.3-1.4 0.8-1.9 0.5-0.5 1.1-0.7 1.8-0.7h2.7v-13.3c0-0.7 0.3-1.3 0.8-1.8 0.5-0.5 1.1-0.8 1.8-0.8h13.2q0.3 0 0.5 0.1 0.3 0.1 0.5 0.3l9.2 9.2q0.2 0.2 0.3 0.5zm-2.5 3.1h-8c-0.7 0-1.3-0.3-1.8-0.8-0.5-0.5-0.8-1.1-0.8-1.8v-8h-10.6v13.3h7.4c0.7 0 1.3 0.2 1.8 0.6l4.5 4q0.4 0.4 0.6 0.9 0.3 0.5 0.3 1.1 0 0.5-0.3 1.1-0.2 0.5-0.7 0.9l-4.4 3.9c-0.5 0.4-1.1 0.7-1.8 0.7h-7.4v5.3h21.2zm-26.5 13.2h12.7l4.5-4-4.5-4h-12.7zm18.5-15.8h7.4l-7.4-7.4z"/>
</svg>