<svg width="18" height="16" viewBox="0 0 18 16" fill="none" xmlns="http://www.w3.org/2000/svg">
<path d="M1 2.55556C1 2.143 1.16857 1.74733 1.46863 1.45561C1.76869 1.16389 2.17565 1 2.6 1H7.4V15H2.6C2.17565 15 1.76869 14.8361 1.46863 14.5444C1.16857 14.2527 1 13.857 1 13.4444V2.55556ZM10.6 1H15.4C15.8243 1 16.2313 1.16389 16.5314 1.45561C16.8314 1.74733 17 2.143 17 2.55556V6.44444H10.6V1ZM10.6 9.55556H17V13.4444C17 13.857 16.8314 14.2527 16.5314 14.5444C16.2313 14.8361 15.8243 15 15.4 15H10.6V9.55556Z" stroke="#BC9C22" stroke-width="2" stroke-linecap="round" stroke-linejoin="round"/>
</svg>
