<svg version="1.2" xmlns="http://www.w3.org/2000/svg" viewBox="0 0 20 20" width="20" height="20">
	<title>file-edit_10470335-svg</title>
	<style>
		.s0 { fill: #bc9c22 } 
	</style>
	<path id="Layer" fill-rule="evenodd" class="s0" d="m1.7 18.3h5.8v1.7h-7.5v-17.5c0-1.4 1.1-2.5 2.5-2.5h7.8l6.4 6.3v1.3q-1 0.2-1.7 0.7v-0.8h-5.8v-5.8h-6.7c-0.5 0-0.8 0.3-0.8 0.8zm9.1-12.5h3l-3-3zm9.2 5.8c0 0.7-0.3 1.3-0.7 1.8l-6.6 6.6h-3.5v-3.6l6.5-6.5c1-1 2.6-1 3.6 0 0.4 0.4 0.7 1.1 0.7 1.7zm-1.7 0q0-0.3-0.2-0.5c-0.3-0.4-0.9-0.4-1.2 0l-6.1 6v1.2h1.2l6.1-6.1q0.2-0.2 0.2-0.6z"/>
</svg>