<svg version="1.2" xmlns="http://www.w3.org/2000/svg" viewBox="0 0 20 20" width="20" height="20">
	<title>Forms-svg</title>
	<style>
		.s0 { fill: #bc9c22 } 
	</style>
	<path id="Layer" fill-rule="evenodd" class="s0" d="m18.3 8.7v7.1c0 2.3-1.8 4.2-4.1 4.2h-8.4c-2.3 0-4.1-1.9-4.1-4.2v-11.6c0-2.3 1.8-4.2 4.1-4.2h3.8c1.6 0 3 0.6 4.1 1.7l2.9 2.9c1.1 1.1 1.7 2.6 1.7 4.1zm-1.6 0q0-0.2-0.1-0.4h-4.1c-1.4 0-2.5-1.1-2.5-2.5v-4.1q-0.2 0-0.4 0h-3.8c-1.3 0-2.5 1.1-2.5 2.5v11.6c0 1.4 1.2 2.5 2.5 2.5h8.4c1.3 0 2.5-1.1 2.5-2.5 0 0 0-7.1 0-7.1zm-4.2-5.8q-0.4-0.4-0.8-0.7v3.6c0 0.5 0.3 0.9 0.8 0.9h3.6q-0.3-0.5-0.7-0.9zm2.5 12.1c0 0.5-0.4 0.8-0.8 0.8h-8.4c-0.4 0-0.8-0.3-0.8-0.8 0-0.5 0.4-0.8 0.8-0.8h8.4c0.4 0 0.8 0.3 0.8 0.8zm-7.5-5.8c-0.9 0-1.7-0.8-1.7-1.7 0-0.9 0.8-1.7 1.7-1.7 0.9 0 1.7 0.8 1.7 1.7 0 0.9-0.8 1.7-1.7 1.7zm-2.1 3.1c-0.4-0.2-0.5-0.8-0.2-1.1 0.1-0.2 0.9-1.2 2.3-1.2 1.4 0 2.2 1 2.3 1.2 0.3 0.3 0.2 0.9-0.1 1.1q-0.3 0.2-0.5 0.2c-0.3 0-0.5-0.1-0.7-0.3 0 0-0.4-0.5-1-0.5-0.5 0-1 0.5-1 0.5-0.2 0.3-0.8 0.4-1.1 0.1z"/>
</svg>