<svg version="1.2" xmlns="http://www.w3.org/2000/svg" viewBox="0 0 20 20" width="20" height="20">
	<title>submission-svg</title>
	<style>
		.s0 { fill: #000000 } 
	</style>
	<path id="Layer" fill-rule="evenodd" class="s0" d="m8.3 19.2c0 0.4-0.3 0.8-0.8 0.8h-3.3c-2.3 0-4.2-1.9-4.2-4.2v-11.6c0-2.3 1.9-4.2 4.2-4.2h6.6c2.3 0 4.2 1.9 4.2 4.2v1.6c0 0.5-0.4 0.9-0.8 0.9-0.5 0-0.9-0.4-0.9-0.9v-1.6c0-1.4-1.1-2.5-2.5-2.5h-6.6c-1.4 0-2.5 1.1-2.5 2.5v11.6c0 1.4 1.1 2.5 2.5 2.5h3.3c0.5 0 0.8 0.4 0.8 0.9zm2.5-13.4h-6.6c-0.5 0-0.9-0.3-0.9-0.8 0-0.5 0.4-0.8 0.9-0.8h6.6c0.5 0 0.9 0.3 0.9 0.8 0 0.5-0.4 0.8-0.9 0.8zm-3.3 4.2h-3.3c-0.5 0-0.9-0.4-0.9-0.8 0-0.5 0.4-0.9 0.9-0.9h3.3c0.5 0 0.8 0.4 0.8 0.9 0 0.4-0.3 0.8-0.8 0.8zm-1.7 2.5c0.5 0 0.9 0.4 0.9 0.8 0 0.5-0.4 0.9-0.9 0.9h-1.6c-0.5 0-0.9-0.4-0.9-0.9 0-0.4 0.4-0.8 0.9-0.8zm8.3 7.5c-3.2 0-5.8-2.6-5.8-5.8 0-3.3 2.6-5.9 5.8-5.9 3.2 0 5.8 2.6 5.8 5.9 0 3.2-2.6 5.8-5.8 5.8zm4.2-5.8c0-2.3-1.9-4.2-4.2-4.2-2.3 0-4.2 1.9-4.2 4.2 0 2.3 1.9 4.1 4.2 4.1 2.3 0 4.2-1.8 4.2-4.1zm-1.5-1c0.3 0.3 0.3 0.8 0 1.1l-1.9 1.8c-0.4 0.4-0.9 0.6-1.4 0.6-0.5 0-1-0.2-1.3-0.6l-1-0.9c-0.3-0.3-0.3-0.9 0-1.2 0.3-0.3 0.8-0.3 1.2 0l0.9 0.9c0.1 0.1 0.3 0.1 0.5 0l1.8-1.8c0.3-0.3 0.9-0.3 1.2 0.1z"/>
</svg>