<svg width="22" height="22" viewBox="0 0 22 22" fill="none" xmlns="http://www.w3.org/2000/svg">
<path d="M7.73666 9.70414C7.73666 9.53523 7.8032 9.37324 7.92164 9.2538C8.04009 9.13436 8.20073 9.06726 8.36823 9.06726H12.1576C12.3251 9.06726 12.4857 9.13436 12.6042 9.2538C12.7226 9.37324 12.7892 9.53523 12.7892 9.70414C12.7892 9.87306 12.7226 10.0351 12.6042 10.1545C12.4857 10.2739 12.3251 10.341 12.1576 10.341H8.36823C8.20073 10.341 8.04009 10.2739 7.92164 10.1545C7.8032 10.0351 7.73666 9.87306 7.73666 9.70414ZM2.89469 1C2.39218 1 1.91026 1.2013 1.55494 1.55962C1.19962 1.91794 1 2.40393 1 2.91067V4.60904C1 5.2714 1.33431 5.85479 1.84208 6.19786V15.6484C1.84208 16.7182 2.2635 17.7442 3.01363 18.5006C3.76375 19.2571 4.78114 19.6821 5.84198 19.6821H10.684C10.3899 19.2878 10.1423 18.8603 9.94629 18.4083H5.84198C5.11614 18.4083 4.42003 18.1175 3.90679 17.5999C3.39354 17.0824 3.10521 16.3804 3.10521 15.6484V6.5197H17.4206V9.72113C17.8586 9.84293 18.2821 10.0123 18.6837 10.2264V6.19786C19.1915 5.85479 19.5258 5.27225 19.5258 4.60904V2.91067C19.5258 2.40393 19.3262 1.91794 18.9709 1.55962C18.6156 1.2013 18.1336 1 17.6311 1H2.89469ZM2.26312 2.91067C2.26312 2.74175 2.32966 2.57976 2.4481 2.46032C2.56655 2.34088 2.72719 2.27378 2.89469 2.27378H17.6311C17.7986 2.27378 17.9593 2.34088 18.0777 2.46032C18.1962 2.57976 18.2627 2.74175 18.2627 2.91067V4.60904C18.2627 4.77795 18.1962 4.93994 18.0777 5.05938C17.9593 5.17882 17.7986 5.24592 17.6311 5.24592H2.89469C2.72719 5.24592 2.56655 5.17882 2.4481 5.05938C2.32966 4.93994 2.26312 4.77795 2.26312 4.60904V2.91067ZM11.4039 14.7517C11.6239 14.6968 11.8306 14.5977 12.0117 14.4603C12.1928 14.3229 12.3445 14.1501 12.4578 13.9522C12.5711 13.7543 12.6436 13.5354 12.671 13.3086C12.6985 13.0818 12.6802 12.8517 12.6174 12.6321L12.3361 11.6479C12.7729 11.2586 13.2713 10.9457 13.8106 10.7223L14.5264 11.4815C14.6837 11.6484 14.873 11.7812 15.0829 11.872C15.2927 11.9628 15.5186 12.0097 15.747 12.0097C15.9753 12.0097 16.2013 11.9628 16.4111 11.872C16.6209 11.7812 16.8103 11.6484 16.9676 11.4815L17.6775 10.7291C18.2198 10.9541 18.7174 11.2726 19.1536 11.6632L18.8808 12.5956C18.8162 12.8164 18.7969 13.0482 18.8239 13.2768C18.8509 13.5054 18.9237 13.7261 19.0379 13.9255C19.1521 14.1248 19.3053 14.2987 19.4882 14.4365C19.6711 14.5743 19.8799 14.6732 20.1018 14.7271L20.9245 14.9275C21.0228 15.5324 21.0251 16.1493 20.9313 16.7549L20.0673 16.9698C19.8474 17.0248 19.6408 17.1239 19.4598 17.2614C19.2788 17.3988 19.1272 17.5716 19.0139 17.7695C18.9007 17.9674 18.8283 18.1862 18.8009 18.413C18.7736 18.6398 18.7918 18.8698 18.8547 19.0893L19.1359 20.0744C18.6991 20.4637 18.2007 20.7766 17.6615 21L16.9457 20.2408C16.7883 20.0738 16.599 19.9408 16.3891 19.8499C16.1791 19.7591 15.9531 19.7122 15.7247 19.7122C15.4962 19.7122 15.2702 19.7591 15.0603 19.8499C14.8504 19.9408 14.661 20.0738 14.5036 20.2408L13.7946 20.9924C13.2542 20.7665 12.7552 20.4507 12.3184 20.0583L12.5913 19.1258C12.6558 18.905 12.6752 18.6733 12.6482 18.4446C12.6212 18.216 12.5484 17.9953 12.4342 17.796C12.32 17.5966 12.1668 17.4228 11.9839 17.285C11.801 17.1472 11.5922 17.0483 11.3703 16.9944L10.5484 16.7948C10.4499 16.1899 10.4476 15.573 10.5416 14.9674L11.4039 14.7517ZM16.9996 15.8607C16.9996 15.5229 16.8665 15.1989 16.6296 14.96C16.3927 14.7212 16.0715 14.587 15.7365 14.587C15.4015 14.587 15.0802 14.7212 14.8433 14.96C14.6064 15.1989 14.4733 15.5229 14.4733 15.8607C14.4733 16.1986 14.6064 16.5225 14.8433 16.7614C15.0802 17.0003 15.4015 17.1345 15.7365 17.1345C16.0715 17.1345 16.3927 17.0003 16.6296 16.7614C16.8665 16.5225 16.9996 16.1986 16.9996 15.8607Z" fill="#BC9C22" stroke="#BC9C22" stroke-width="0.5"/>
</svg>
