<svg width="20" height="17" viewBox="0 0 20 17" fill="none" xmlns="http://www.w3.org/2000/svg">
<path d="M0 2.01613C0 1.48142 0.210714 0.968608 0.585786 0.59051C0.960859 0.212413 1.46957 0 2 0H18C18.5304 0 19.0391 0.212413 19.4142 0.59051C19.7893 0.968608 20 1.48142 20 2.01613V14.1129C20 14.6476 19.7893 15.1604 19.4142 15.5385C19.0391 15.9166 18.5304 16.129 18 16.129H2C1.46957 16.129 0.960859 15.9166 0.585786 15.5385C0.210714 15.1604 0 14.6476 0 14.1129V2.01613ZM3.519 2.01613L10 7.73286L16.481 2.01613H3.519ZM18 3.35585L10.659 9.83165C10.4766 9.99272 10.2424 10.0815 10 10.0815C9.75755 10.0815 9.52336 9.99272 9.341 9.83165L2 3.35585V14.1129H18V3.35585Z" fill="#BC9C22"/>
</svg>
