<svg width="23" height="21" viewBox="0 0 23 21" fill="none" xmlns="http://www.w3.org/2000/svg">
<path d="M3.86745 4.28047C3.86745 3.57094 4.1585 2.89047 4.67656 2.38875C5.19463 1.88704 5.89727 1.60518 6.62992 1.60518C7.36257 1.60518 8.06522 1.88704 8.58328 2.38875C9.10135 2.89047 9.39239 3.57094 9.39239 4.28047C9.39239 4.99001 9.10135 5.67048 8.58328 6.17219C8.06522 6.67391 7.36257 6.95577 6.62992 6.95577C5.89727 6.95577 5.19463 6.67391 4.67656 6.17219C4.1585 5.67048 3.86745 4.99001 3.86745 4.28047ZM6.62992 0C5.45768 0 4.33345 0.450977 3.50455 1.25372C2.67565 2.05647 2.20997 3.14522 2.20997 4.28047C2.20997 5.41572 2.67565 6.50448 3.50455 7.30722C4.33345 8.10997 5.45768 8.56095 6.62992 8.56095C7.80217 8.56095 8.9264 8.10997 9.7553 7.30722C10.5842 6.50448 11.0499 5.41572 11.0499 4.28047C11.0499 3.14522 10.5842 2.05647 9.7553 1.25372C8.9264 0.450977 7.80217 0 6.62992 0ZM14.9173 5.35059C14.9173 4.92487 15.092 4.51659 15.4028 4.21556C15.7136 3.91453 16.1352 3.74541 16.5748 3.74541C17.0144 3.74541 17.436 3.91453 17.7468 4.21556C18.0577 4.51659 18.2323 4.92487 18.2323 5.35059C18.2323 5.77631 18.0577 6.18459 17.7468 6.48562C17.436 6.78665 17.0144 6.95577 16.5748 6.95577C16.1352 6.95577 15.7136 6.78665 15.4028 6.48562C15.092 6.18459 14.9173 5.77631 14.9173 5.35059ZM16.5748 2.14024C15.6956 2.14024 14.8524 2.47847 14.2308 3.08053C13.6091 3.68259 13.2598 4.49915 13.2598 5.35059C13.2598 6.20203 13.6091 7.0186 14.2308 7.62066C14.8524 8.22271 15.6956 8.56095 16.5748 8.56095C17.454 8.56095 18.2972 8.22271 18.9188 7.62066C19.5405 7.0186 19.8898 6.20203 19.8898 5.35059C19.8898 4.49915 19.5405 3.68259 18.9188 3.08053C18.2972 2.47847 17.454 2.14024 16.5748 2.14024ZM2.48622 10.7012C1.82683 10.7012 1.19445 10.9549 0.728197 11.4064C0.26194 11.8579 0 12.4704 0 13.1089V13.4064C0.00129865 13.4808 0.00646172 13.5551 0.0154698 13.629C0.106719 14.4253 0.402254 15.1868 0.87515 15.8442C1.77903 17.0941 3.50502 18.192 6.62992 18.192C8.14265 18.192 9.3272 17.9352 10.2499 17.5285C10.082 16.9893 9.98256 16.4323 9.95372 15.8699C9.24101 16.2765 8.19127 16.5868 6.62992 16.5868C3.95364 16.5868 2.77794 15.6772 2.23207 14.9228C1.92239 14.4906 1.72768 13.9911 1.66522 13.4685C1.66188 13.4404 1.6593 13.4122 1.65748 13.384V13.1089C1.65748 12.8961 1.74479 12.6919 1.90021 12.5414C2.05563 12.3909 2.26643 12.3064 2.48622 12.3064H10.7537C11.0289 11.7959 11.367 11.3229 11.7582 10.897C11.4472 10.7673 11.1122 10.7007 10.7736 10.7012H2.48622ZM13.5659 11.7456C13.6484 12.0223 13.6723 12.3122 13.6364 12.5981C13.6004 12.8839 13.5052 13.1598 13.3565 13.4092C13.2079 13.6586 13.0088 13.8763 12.7711 14.0494C12.5335 14.2225 12.2623 14.3474 11.9736 14.4166L11.3283 14.5718C11.2249 15.2126 11.2271 15.8653 11.335 16.5055L11.9317 16.6446C12.2229 16.7126 12.4969 16.8371 12.7368 17.0108C12.9768 17.1844 13.1779 17.4035 13.3277 17.6548C13.4776 17.906 13.5731 18.1841 13.6086 18.4722C13.644 18.7603 13.6186 19.0523 13.5339 19.3306L13.3272 20.0059C13.8134 20.4189 14.3659 20.7549 14.9682 20.9925L15.5129 20.4371C15.7194 20.2268 15.9678 20.0594 16.2431 19.945C16.5185 19.8305 16.815 19.7715 17.1146 19.7715C17.4142 19.7715 17.7107 19.8305 17.986 19.945C18.2614 20.0594 18.5098 20.2268 18.7163 20.4371L19.2677 21C19.8656 20.7643 20.4189 20.4341 20.9053 20.023L20.6865 19.2889C20.604 19.0121 20.5801 18.7221 20.6162 18.4362C20.6522 18.1503 20.7475 17.8744 20.8963 17.625C21.045 17.3756 21.2443 17.1579 21.482 16.9848C21.7198 16.8117 21.9911 16.6869 22.2799 16.6179L22.9241 16.4627C23.0275 15.8218 23.0253 15.1692 22.9174 14.529L22.3207 14.3899C22.0296 14.3218 21.7558 14.1972 21.5159 14.0234C21.276 13.8497 21.0751 13.6306 20.9254 13.3794C20.7756 13.1282 20.6802 12.8502 20.6448 12.5621C20.6094 12.2741 20.6349 11.9821 20.7196 11.7039L20.9251 11.0286C20.4389 10.6138 19.8847 10.2804 19.2853 10.042L18.7406 10.5963C18.5341 10.8068 18.2856 10.9744 18.0102 11.0889C17.7347 11.2034 17.4381 11.2625 17.1383 11.2625C16.8386 11.2625 16.542 11.2034 16.2665 11.0889C15.9911 10.9744 15.7426 10.8068 15.5361 10.5963L14.9858 10.0345C14.3847 10.2699 13.8322 10.6017 13.3471 11.0115L13.5659 11.7456ZM17.1273 17.1219C16.2433 17.1219 15.5251 16.4038 15.5251 15.5167C15.5251 14.6307 16.2433 13.9115 17.1273 13.9115C18.0113 13.9115 18.7295 14.6307 18.7295 15.5167C18.7295 16.4038 18.0113 17.1219 17.1273 17.1219Z" fill="#BC9C22"/>
</svg>
