<svg version="1.2" xmlns="http://www.w3.org/2000/svg" viewBox="0 0 34 31" width="20" height="18">
	<title>Group 7-svg</title>
	<style>
		.s0 { fill: #bc9c22 } 
	</style>
	<path id="Layer" class="s0" d="m28.6 25l-2.2-2.2v-2.9h-2.2v3.8l2.8 2.8z"/>
	<path id="Layer" fill-rule="evenodd" class="s0" d="m25.3 31c-4.3 0-7.7-3.5-7.7-7.8 0-4.2 3.4-7.7 7.7-7.7 4.3 0 7.7 3.5 7.7 7.7 0 4.3-3.4 7.8-7.7 7.8zm0-13.3c-3.1 0-5.5 2.5-5.5 5.5 0 3.1 2.4 5.6 5.5 5.6 3 0 5.5-2.5 5.5-5.6 0-3-2.5-5.5-5.5-5.5zm4.4-15.5h-3.3v-2.2h3.3c1.2 0 2.2 1 2.2 2.2v11.1h-2.2z"/>
	<path id="Layer" class="s0" d="m8.7 13.3c1.2 0 2.2-1 2.2-2.2 0-1.3-1-2.3-2.2-2.3-1.2 0-2.2 1-2.2 2.3 0 1.2 1 2.2 2.2 2.2z"/>
	<path id="Layer" class="s0" d="m16.4 13.3c1.3 0 2.3-1 2.3-2.2 0-1.3-1-2.3-2.3-2.3-1.2 0-2.2 1-2.2 2.3 0 1.2 1 2.2 2.2 2.2z"/>
	<path id="Layer" class="s0" d="m24.2 13.3c1.2 0 2.2-1 2.2-2.2 0-1.3-1-2.3-2.2-2.3-1.2 0-2.2 1-2.2 2.3 0 1.2 1 2.2 2.2 2.2z"/>
	<path id="Layer" class="s0" d="m6.5 22.1h-3.3c-1.2 0-2.2-1-2.2-2.2v-17.7c0-1.2 1-2.2 2.2-2.2h3.3v2.2h-3.3v17.7h3.3z"/>
</svg>