<svg version="1.2" xmlns="http://www.w3.org/2000/svg" viewBox="0 0 37 31" width="20" height="17">
	<title>Vector-1-svg</title>
	<style>
		.s0 { fill: #bc9c22;stroke: #ffffff } 
	</style>
	<path id="Layer" fill-rule="evenodd" class="s0" d="m36 4.2v23.1c0 0.8-0.3 1.6-0.9 2.2-0.7 0.6-1.5 1-2.3 1h-10.9q-0.6 0-1.1-0.4-0.5-0.4-0.7-0.9c-0.4-1.2-1.2-2.1-2.1-2.8-1-0.7-2.2-1.1-3.4-1.1-1.2 0-2.4 0.4-3.3 1.1-1 0.7-1.8 1.6-2.2 2.8q-0.2 0.5-0.7 0.9-0.5 0.4-1.1 0.4h-3.1c-0.8 0-1.6-0.4-2.3-1-0.6-0.6-0.9-1.4-0.9-2.2v-23.1c0-0.8 0.3-1.7 0.9-2.3 0.7-0.6 1.5-0.9 2.3-0.9h28.6c0.8 0 1.6 0.3 2.3 0.9 0.6 0.6 0.9 1.5 0.9 2.3zm-3.9 0.6h-27.2v21.8h1.1c0.8-1.5 2-2.8 3.5-3.7-0.7-0.9-1.2-2.1-1.3-3.3-0.2-1.2 0-2.4 0.6-3.5 0.5-1 1.3-2 2.4-2.6 1-0.6 2.2-1 3.4-1 1.2 0 2.4 0.4 3.5 1 1 0.6 1.8 1.6 2.3 2.6 0.6 1.1 0.8 2.3 0.7 3.5-0.2 1.2-0.7 2.4-1.4 3.3 1.5 0.9 2.7 2.2 3.5 3.7h8.9zm-25.3 3.9c0-0.5 0.2-1 0.6-1.4 0.4-0.3 0.9-0.5 1.4-0.5h19.4c0.5 0 1 0.2 1.4 0.5 0.4 0.4 0.6 0.9 0.6 1.4v14.1c0 0.5-0.2 1-0.6 1.3-0.4 0.4-0.9 0.6-1.4 0.6-0.5 0-1-0.2-1.4-0.6-0.3-0.3-0.5-0.8-0.5-1.3v-12.2h-17.5c-0.5 0-1-0.2-1.4-0.6-0.4-0.3-0.6-0.8-0.6-1.3zm7.8 12.8c0.5 0 1-0.2 1.5-0.4 0.4-0.3 0.7-0.7 0.9-1.2 0.2-0.5 0.3-1 0.2-1.5-0.1-0.5-0.4-0.9-0.8-1.3-0.3-0.3-0.8-0.6-1.3-0.7-0.5-0.1-1 0-1.5 0.2-0.5 0.2-0.9 0.5-1.1 0.9-0.3 0.4-0.5 0.9-0.5 1.4 0 0.7 0.3 1.4 0.8 1.8 0.5 0.5 1.1 0.8 1.8 0.8z"/>
</svg>