<svg version="1.2" xmlns="http://www.w3.org/2000/svg" viewBox="0 0 20 20" width="20" height="20">
	<title>clipboard-user_9856494-svg</title>
	<style>
		.s0 { fill: #bc9c22 } 
	</style>
	<path id="Layer" fill-rule="evenodd" class="s0" d="m18.3 1.7v15.4c0 1.6-1.3 2.9-2.9 2.9h-10.8c-1.6 0-2.9-1.3-2.9-2.9v-15.4h4.4c0.5-1 1.5-1.7 2.6-1.7h2.5c1.2 0 2.2 0.7 2.7 1.7zm-2.5 2.5h-4.2v-1.3c0-0.2-0.2-0.4-0.4-0.4h-2.5c-0.2 0-0.4 0.2-0.4 0.4v1.3h-4.2v12.9c0 0.2 0.2 0.4 0.4 0.4h10.9c0.2 0 0.4-0.2 0.4-0.4zm-5.8 6.7c-1.2 0-2.1-1-2.1-2.1 0-1.2 0.9-2.1 2.1-2.1 1.1 0 2 0.9 2 2.1 0 1.1-0.9 2.1-2 2.1zm1.6 0.8c1.4 0 2.5 1.1 2.5 2.5v1.7h-8.3v-1.7c0-1.4 1.1-2.5 2.5-2.5z"/>
</svg>