<svg width="18" height="19" viewBox="0 0 18 19" fill="none" xmlns="http://www.w3.org/2000/svg">
<path d="M9 0C7.84502 0 6.73735 0.455523 5.92066 1.26636C5.10397 2.07719 4.64516 3.17692 4.64516 4.32362C4.64516 5.47031 5.10397 6.57004 5.92066 7.38088C6.73735 8.19172 7.84502 8.64724 9 8.64724C10.155 8.64724 11.2626 8.19172 12.0793 7.38088C12.896 6.57004 13.3548 5.47031 13.3548 4.32362C13.3548 3.17692 12.896 2.07719 12.0793 1.26636C11.2626 0.455523 10.155 0 9 0ZM4.35484 10.9532C3.19986 10.9532 2.09219 11.4087 1.2755 12.2195C0.458812 13.0304 0 14.1301 0 15.2768V16.6465C0 17.5158 0.634064 18.256 1.49806 18.3956C6.46606 19.2015 11.5339 19.2015 16.5019 18.3956C16.9201 18.328 17.3004 18.1149 17.5748 17.7945C17.8493 17.474 18 17.0671 18 16.6465V15.2768C18 14.1301 17.5412 13.0304 16.7245 12.2195C15.9078 11.4087 14.8001 10.9532 13.6452 10.9532H13.2503C13.0355 10.9532 12.8218 10.9878 12.6186 11.0523L11.6129 11.3786C9.91505 11.9288 8.08495 11.9288 6.3871 11.3786L5.38142 11.0523C5.17779 10.9865 4.96498 10.9531 4.75084 10.9532H4.35484Z" fill="#BC9C22"/>
</svg>
