<svg version="1.2" xmlns="http://www.w3.org/2000/svg" viewBox="0 0 20 20" width="20" height="20">
	<title>attention-detail_16769601-svg</title>
	<style>
		.s0 { fill: #000000 } 
	</style>
	<path id="Layer" fill-rule="evenodd" class="s0" d="m18.4 19.6l-2.2-2.2c-0.8 0.6-1.8 0.9-2.9 0.9-2.7 0-5-2.2-5-5 0-2.7 2.3-5 5-5 2.8 0 5 2.3 5 5 0 1.1-0.3 2.1-0.9 2.9l2.2 2.2zm-1.3-6.2c-0.4-0.7-1.5-2.5-3.8-2.5-2.3 0-3.4 1.8-3.7 2.5 0.3 0.6 1.4 2.5 3.7 2.5 2.3 0 3.4-1.9 3.8-2.5zm-17.1 6.6v-17.5c0-1.4 1.1-2.5 2.5-2.5h8.3v5.9h5.8v1.7c-0.9-0.6-2.1-0.9-3.3-0.9-3.7 0-6.7 3-6.7 6.7 0 3.6 3 6.6 6.7 6.6zm16.2-15.8h-3.7v-3.7zm-2.8 10.4c-0.7 0-1.3-0.5-1.3-1.2 0-0.7 0.6-1.3 1.3-1.3 0.7 0 1.2 0.6 1.2 1.3 0 0.7-0.5 1.2-1.2 1.2z"/>
</svg>